<svg width="318" height="318" viewBox="0 0 318 318" xmlns="http://www.w3.org/2000/svg">
  <path d="M274.1,35.5l-99.5,73.9L193,65.8L274.1,35.5z" fill="#E2761B" stroke="#E2761B" stroke-linecap="round" stroke-linejoin="round" stroke-width="3"/>
  <path d="M44.4,35.5l98.7,74.6l-17.5-44.3L44.4,35.5z" fill="#E4761B" stroke="#E4761B" stroke-linecap="round" stroke-linejoin="round" stroke-width="3"/>
  <path d="M238.3,206.8l-26.5,40.6l56.7,15.6l16.3-55.3L238.3,206.8z" fill="#E4761B" stroke="#E4761B" stroke-linecap="round" stroke-linejoin="round" stroke-width="3"/>
  <path d="M33.9,207.7l16.2,55.3l56.7-15.6l-26.5-40.6L33.9,207.7z" fill="#E4761B" stroke="#E4761B" stroke-linecap="round" stroke-linejoin="round" stroke-width="3"/>
  <path d="M103.6,138.2l-15.8,23.9l56.3,2.5l-2-60.5L103.6,138.2z" fill="#E4761B" stroke="#E4761B" stroke-linecap="round" stroke-linejoin="round" stroke-width="3"/>
  <path d="M214.9,138.2l-39.7-34.8l-1.3,61.2l56.2-2.5L214.9,138.2z" fill="#E4761B" stroke="#E4761B" stroke-linecap="round" stroke-linejoin="round" stroke-width="3"/>
  <path d="M106.8,247.4l33.8-16.5l-29.2-22.8L106.8,247.4z" fill="#E4761B" stroke="#E4761B" stroke-linecap="round" stroke-linejoin="round" stroke-width="3"/>
  <path d="M177.9,230.9l33.9,16.5l-4.7-39.3L177.9,230.9z" fill="#E4761B" stroke="#E4761B" stroke-linecap="round" stroke-linejoin="round" stroke-width="3"/>
  <path d="M211.8,247.4l-33.9-16.5l2.7,22.1l-0.3,9.3L211.8,247.4z" fill="#D7C1B3" stroke="#D7C1B3" stroke-linecap="round" stroke-linejoin="round" stroke-width="3"/>
  <path d="M106.8,247.4l31.4,14.9l-0.2-9.3l2.5-22.1L106.8,247.4z" fill="#D7C1B3" stroke="#D7C1B3" stroke-linecap="round" stroke-linejoin="round" stroke-width="3"/>
  <path d="M138.8,193.5l-28.2-8.3l19.9-9.1L138.8,193.5z" fill="#233447" stroke="#233447" stroke-linecap="round" stroke-linejoin="round" stroke-width="3"/>
  <path d="M179.7,193.5l8.3-17.4l20,9.1L179.7,193.5z" fill="#233447" stroke="#233447" stroke-linecap="round" stroke-linejoin="round" stroke-width="3"/>
  <path d="M106.8,247.4l4.8-40.6l-31.3,0.9L106.8,247.4z" fill="#CD6116" stroke="#CD6116" stroke-linecap="round" stroke-linejoin="round" stroke-width="3"/>
  <path d="M207,206.8l-31.4-0.9l4.7,40.6L207,206.8z" fill="#CD6116" stroke="#CD6116" stroke-linecap="round" stroke-linejoin="round" stroke-width="3"/>
  <path d="M230.8,162.1l-56.2,2.5l5.2,28.9l8.3-17.4l20,9.1L230.8,162.1z" fill="#CD6116" stroke="#CD6116" stroke-linecap="round" stroke-linejoin="round" stroke-width="3"/>
  <path d="M110.6,185.2l19.9-9.1l8.3,17.4l5.3-28.9l-56.3-2.5L110.6,185.2z" fill="#CD6116" stroke="#CD6116" stroke-linecap="round" stroke-linejoin="round" stroke-width="3"/>
  <path d="M87.8,162.1l23.6,46l-0.8-22.9L87.8,162.1z" fill="#E4751F" stroke="#E4751F" stroke-linecap="round" stroke-linejoin="round" stroke-width="3"/>
  <path d="M208.1,185.2l-1,22.9l23.7-46L208.1,185.2z" fill="#E4751F" stroke="#E4751F" stroke-linecap="round" stroke-linejoin="round" stroke-width="3"/>
  <path d="M144.1,164.6l-5.3,28.9l6.6,34.1l1.5-44.9L144.1,164.6z" fill="#E4751F" stroke="#E4751F" stroke-linecap="round" stroke-linejoin="round" stroke-width="3"/>
  <path d="M174.6,164.6l-2.7,18l1.2,45l6.7-34.1L174.6,164.6z" fill="#E4751F" stroke="#E4751F" stroke-linecap="round" stroke-linejoin="round" stroke-width="3"/>
  <path d="M179.8,193.5l-6.7,34.1l4.8,3.3l29.2-22.8l1-22.9L179.8,193.5z" fill="#F6851B" stroke="#F6851B" stroke-linecap="round" stroke-linejoin="round" stroke-width="3"/>
  <path d="M110.6,185.2l0.8,22.9l29.2,22.8l4.8-3.3l-6.6-34.1L110.6,185.2z" fill="#F6851B" stroke="#F6851B" stroke-linecap="round" stroke-linejoin="round" stroke-width="3"/>
  <path d="M180.3,262.3l0.3-9.3l-2.5-2.2h-37.7l-2.3,2.2l0.2,9.3l-31.5-14.9l11,9l22.3,15.5h38.3l22.4-15.5l11-9L180.3,262.3z" fill="#C0AD9E" stroke="#C0AD9E" stroke-linecap="round" stroke-linejoin="round" stroke-width="3"/>
  <path d="M177.9,230.9l-4.8-3.3h-27.7l-4.8,3.3l-2.5,22.1l2.3-2.2h37.7l2.5,2.2L177.9,230.9z" fill="#161616" stroke="#161616" stroke-linecap="round" stroke-linejoin="round" stroke-width="3"/>
  <path d="M278.3,114.2l8.5-40.8L274.1,35.5L177.9,106l36.9,31.1l52.1,15.2l11.5-13.4l-5-3.6l8-7.3l-6.2-4.8l8-6.1L278.3,114.2z" fill="#763D16" stroke="#763D16" stroke-linecap="round" stroke-linejoin="round" stroke-width="3"/>
  <path d="M31.8,73.4l8.5,40.8l-5.4,4l8,6.1l-6.1,4.8l8,7.3l-5,3.6l11.5,13.4l52.1-15.2l36.9-31.1L31.8,35.5L31.8,73.4z" fill="#763D16" stroke="#763D16" stroke-linecap="round" stroke-linejoin="round" stroke-width="3"/>
  <path d="M267,152.3l-52.1-15.2l15.9,23.9l-23.7,46l31.4-0.4h46.5L267,152.3z" fill="#F6851B" stroke="#F6851B" stroke-linecap="round" stroke-linejoin="round" stroke-width="3"/>
  <path d="M103.6,137.1L51.5,152.3l-18,54.3h46.4l31.3,0.4l-23.6-46L103.6,137.1z" fill="#F6851B" stroke="#F6851B" stroke-linecap="round" stroke-linejoin="round" stroke-width="3"/>
  <path d="M174.6,164.6l3.3-57.7l15.2-41.1H125.6l15.2,41.1l3.5,57.7l1.3,18.4l0.1,44.9h27.7l0.1-44.9L174.6,164.6z" fill="#F6851B" stroke="#F6851B" stroke-linecap="round" stroke-linejoin="round" stroke-width="3"/>
</svg> 